<svg width="1080" height="1080" viewBox="0 0 1080 1080" fill="none" xmlns="http://www.w3.org/2000/svg">
<path d="M134.26 793.003L134.379 157.823L143.473 151.89L144.092 151.551C265 84.9688 401.866 49.7832 539.888 49.7832C677.914 49.7832 815.048 85.0506 936.046 151.761L945.75 157.113L945.63 793.222L539.879 1027.34L134.248 793.023L134.26 793.003Z" fill="url(#paint0_linear_183_1011)"/>
<path d="M945.099 135.309C882.82 100.974 816.339 74.6511 747.525 57.0832C679.745 39.7752 609.882 31 539.879 31C469.876 31 400.154 39.7548 332.441 57.0218C263.688 74.5518 197.278 100.822 135.037 135.099L134.429 135.441L133.827 135.8L115.608 146.734V167.986L115.488 782.174V803.843L134.248 814.678L521.111 1038.17L539.879 1049L558.648 1038.17L945.619 814.868L964.387 804.033V782.364L964.51 168.175V146.004L945.099 135.301V135.309ZM153.148 167.986C273.544 101.684 406.706 68.5371 539.888 68.5371C673.07 68.5371 806.504 101.754 926.982 168.175L926.9 612.504H153.057L153.136 167.974L153.148 167.986ZM539.888 1005.66L188.103 802.444H892.074L539.879 1005.66H539.888Z" fill="#8BC34A"/>
<path d="M553.214 253.149V238.961L549.612 241.742L547.24 238.502L553.594 233.84H557.765V253.158H553.202" fill="white"/>
<path d="M571.92 243.43C571.92 242.832 571.879 242.171 571.809 241.441C571.739 240.72 571.601 240.03 571.4 239.411C571.201 238.78 570.909 238.248 570.541 237.831C570.17 237.398 569.679 237.188 569.077 237.188C568.479 237.188 567.988 237.398 567.608 237.831C567.228 238.26 566.928 238.78 566.717 239.411C566.507 240.039 566.367 240.72 566.297 241.441C566.226 242.171 566.188 242.832 566.188 243.43C566.188 244.032 566.226 244.722 566.297 245.464C566.367 246.203 566.507 246.883 566.717 247.503C566.928 248.134 567.217 248.665 567.608 249.086C567.988 249.515 568.479 249.726 569.077 249.726C569.679 249.726 570.17 249.515 570.541 249.086C570.909 248.653 571.201 248.134 571.4 247.503C571.601 246.875 571.739 246.194 571.809 245.464C571.879 244.722 571.92 244.053 571.92 243.43ZM576.611 243.43C576.611 244.792 576.471 246.092 576.202 247.333C575.933 248.575 575.492 249.655 574.891 250.596C574.292 251.537 573.512 252.276 572.56 252.837C571.61 253.386 570.45 253.666 569.077 253.666C567.707 253.666 566.548 253.386 565.587 252.837C564.626 252.284 563.837 251.537 563.226 250.596C562.616 249.664 562.175 248.575 561.906 247.333C561.634 246.092 561.506 244.792 561.506 243.43C561.506 242.072 561.646 240.769 561.906 239.539C562.175 238.31 562.625 237.238 563.226 236.317C563.837 235.397 564.626 234.667 565.587 234.118C566.548 233.577 567.719 233.297 569.077 233.297C570.439 233.297 571.601 233.569 572.56 234.118C573.512 234.667 574.292 235.397 574.891 236.317C575.492 237.238 575.933 238.31 576.202 239.539C576.471 240.769 576.611 242.06 576.611 243.43Z" fill="white"/>
<path d="M602.238 253.149V238.961L598.637 241.742L596.256 238.502L602.621 233.84H606.801V253.158H602.238" fill="white"/>
<path d="M620.951 243.43C620.951 242.831 620.913 242.171 620.843 241.441C620.773 240.719 620.633 240.03 620.431 239.411C620.232 238.78 619.94 238.248 619.572 237.83C619.201 237.398 618.711 237.188 618.112 237.188C617.51 237.188 617.019 237.398 616.639 237.83C616.26 238.26 615.959 238.78 615.748 239.411C615.538 240.039 615.398 240.719 615.331 241.441C615.261 242.171 615.22 242.831 615.22 243.43C615.22 244.032 615.261 244.721 615.331 245.463C615.398 246.202 615.538 246.883 615.748 247.502C615.959 248.133 616.251 248.665 616.639 249.086C617.019 249.515 617.51 249.725 618.112 249.725C618.711 249.725 619.201 249.515 619.572 249.086C619.94 248.653 620.232 248.133 620.431 247.502C620.633 246.874 620.773 246.194 620.843 245.463C620.913 244.721 620.951 244.052 620.951 243.43ZM625.645 243.43C625.645 244.791 625.505 246.091 625.233 247.333C624.965 248.574 624.524 249.655 623.922 250.596C623.323 251.536 622.543 252.275 621.591 252.836C620.633 253.386 619.482 253.666 618.112 253.666C616.739 253.666 615.579 253.386 614.618 252.836C613.66 252.284 612.868 251.536 612.258 250.596C611.647 249.664 611.206 248.574 610.937 247.333C610.669 246.091 610.537 244.791 610.537 243.43C610.537 242.072 610.677 240.769 610.937 239.539C611.206 238.309 611.647 237.237 612.258 236.317C612.868 235.397 613.66 234.667 614.618 234.117C615.579 233.577 616.75 233.297 618.112 233.297C619.47 233.297 620.633 233.568 621.591 234.117C622.543 234.667 623.323 235.397 623.922 236.317C624.524 237.237 624.965 238.309 625.233 239.539C625.505 240.769 625.645 242.06 625.645 243.43Z" fill="white"/>
<path d="M552.792 283.562V269.374L549.19 272.155L546.818 268.903L553.184 264.232H557.364V283.55H552.804" fill="white"/>
<path d="M568.846 283.562V269.374L565.244 272.155L562.875 268.903L569.237 264.232H573.418V283.55H568.858" fill="white"/>
<path d="M584.857 283.562V269.374L581.255 272.155L578.883 268.903L585.236 264.232H589.417V283.55H584.857" fill="white"/>
<path d="M604.389 273.843C604.389 273.244 604.351 272.584 604.28 271.853C604.21 271.123 604.07 270.442 603.869 269.82C603.67 269.192 603.378 268.66 603.01 268.24C602.639 267.81 602.148 267.6 601.549 267.6C600.947 267.6 600.457 267.81 600.077 268.24C599.697 268.669 599.396 269.192 599.186 269.82C598.979 270.451 598.838 271.123 598.768 271.853C598.698 272.572 598.657 273.244 598.657 273.843C598.657 274.444 598.698 275.142 598.768 275.873C598.838 276.615 598.979 277.295 599.186 277.915C599.396 278.546 599.688 279.074 600.077 279.495C600.457 279.924 600.947 280.135 601.549 280.135C602.148 280.135 602.639 279.924 603.01 279.495C603.378 279.066 603.67 278.546 603.869 277.915C604.07 277.284 604.21 276.603 604.28 275.873C604.351 275.134 604.389 274.462 604.389 273.843ZM609.083 273.843C609.083 275.204 608.943 276.504 608.671 277.745C608.402 278.984 607.961 280.065 607.362 281.005C606.761 281.937 605.981 282.688 605.031 283.237C604.079 283.798 602.919 284.067 601.558 284.067C600.197 284.067 599.028 283.798 598.067 283.237C597.106 282.688 596.314 281.937 595.707 281.005C595.096 280.065 594.655 278.984 594.384 277.745C594.115 276.504 593.975 275.204 593.975 273.843C593.975 272.481 594.115 271.181 594.384 269.96C594.655 268.73 595.096 267.661 595.707 266.738C596.314 265.818 597.106 265.088 598.067 264.539C599.028 263.998 600.197 263.718 601.558 263.718C602.919 263.718 604.079 263.989 605.031 264.539C605.989 265.088 606.761 265.818 607.362 266.738C607.961 267.661 608.402 268.73 608.671 269.96C608.943 271.19 609.083 272.481 609.083 273.843Z" fill="white"/>
<path d="M562.025 305.226V294.929L559.414 296.95L557.693 294.599L562.306 291.207H565.338V305.234H562.025" fill="white"/>
<path d="M585.216 305.226V294.929L582.596 296.95L580.875 294.599L585.488 291.207H588.517V305.234H585.207" fill="white"/>
<path d="M552.759 298.186C552.759 297.756 552.739 297.265 552.677 296.737C552.628 296.214 552.529 295.714 552.377 295.256C552.236 294.794 552.029 294.414 551.757 294.105C551.489 293.795 551.138 293.643 550.697 293.643C550.256 293.643 549.897 293.804 549.628 294.105C549.347 294.414 549.137 294.794 548.985 295.256C548.836 295.714 548.737 296.205 548.675 296.737C548.626 297.265 548.597 297.745 548.597 298.186C548.597 298.627 548.626 299.126 548.675 299.658C548.725 300.187 548.827 300.686 548.985 301.148C549.137 301.606 549.356 301.989 549.628 302.299C549.897 302.608 550.256 302.757 550.697 302.757C551.138 302.757 551.489 302.608 551.757 302.299C552.029 301.989 552.236 301.606 552.377 301.148C552.529 300.698 552.628 300.198 552.677 299.658C552.727 299.126 552.759 298.635 552.759 298.186ZM556.168 298.186C556.168 299.176 556.069 300.117 555.879 301.016C555.68 301.919 555.359 302.708 554.93 303.379C554.489 304.06 553.928 304.609 553.238 305.009C552.549 305.41 551.699 305.608 550.717 305.608C549.736 305.608 548.877 305.41 548.176 305.009C547.475 304.609 546.905 304.069 546.464 303.379C546.026 302.699 545.705 301.907 545.503 301.016C545.304 300.117 545.205 299.176 545.205 298.186C545.205 297.195 545.304 296.255 545.503 295.364C545.705 294.473 546.026 293.693 546.464 293.024C546.905 292.364 547.475 291.823 548.176 291.432C548.877 291.043 549.727 290.842 550.717 290.842C551.708 290.842 552.549 291.043 553.238 291.432C553.928 291.832 554.489 292.364 554.93 293.024C555.359 293.693 555.68 294.473 555.879 295.364C556.081 296.255 556.168 297.195 556.168 298.186Z" fill="white"/>
<path d="M576.078 298.186C576.078 297.756 576.049 297.265 576 296.737C575.947 296.214 575.848 295.714 575.699 295.256C575.558 294.794 575.348 294.414 575.077 294.105C574.808 293.795 574.457 293.643 574.016 293.643C573.578 293.643 573.216 293.804 572.947 294.105C572.667 294.414 572.447 294.794 572.307 295.256C572.147 295.714 572.047 296.205 571.998 296.737C571.945 297.265 571.916 297.745 571.916 298.186C571.916 298.627 571.945 299.126 571.998 299.658C572.047 300.187 572.147 300.686 572.307 301.148C572.456 301.606 572.675 301.989 572.947 302.299C573.216 302.608 573.578 302.757 574.016 302.757C574.457 302.757 574.808 302.608 575.077 302.299C575.348 301.989 575.558 301.606 575.699 301.148C575.848 300.698 575.947 300.198 576 299.658C576.049 299.126 576.078 298.635 576.078 298.186ZM579.479 298.186C579.479 299.176 579.379 300.117 579.181 301.016C578.979 301.919 578.661 302.708 578.228 303.379C577.79 304.06 577.229 304.609 576.54 305.009C575.848 305.41 574.998 305.608 574.016 305.608C573.038 305.608 572.176 305.41 571.478 305.009C570.777 304.609 570.207 304.069 569.766 303.379C569.325 302.699 569.006 301.907 568.805 301.016C568.606 300.117 568.504 299.176 568.504 298.186C568.504 297.195 568.606 296.255 568.805 295.364C569.006 294.473 569.325 293.693 569.766 293.024C570.207 292.364 570.777 291.823 571.478 291.432C572.176 291.043 573.017 290.842 574.016 290.842C575.018 290.842 575.848 291.043 576.54 291.432C577.229 291.832 577.79 292.364 578.228 293.024C578.661 293.693 578.979 294.473 579.181 295.364C579.379 296.255 579.479 297.195 579.479 298.186Z" fill="white"/>
<path d="M623.813 305.226V294.929L621.202 296.95L619.473 294.599L624.082 291.207H627.114V305.234H623.805" fill="white"/>
<path d="M614.685 298.186C614.685 297.756 614.653 297.265 614.603 296.737C614.554 296.214 614.454 295.714 614.305 295.256C614.165 294.794 613.955 294.414 613.683 294.105C613.414 293.795 613.064 293.643 612.623 293.643C612.185 293.643 611.822 293.804 611.554 294.105C611.273 294.414 611.063 294.794 610.902 295.256C610.753 295.714 610.654 296.205 610.601 296.737C610.552 297.265 610.522 297.745 610.522 298.186C610.522 298.627 610.552 299.126 610.601 299.658C610.654 300.187 610.762 300.686 610.902 301.148C611.063 301.606 611.273 301.989 611.554 302.299C611.822 302.608 612.185 302.757 612.623 302.757C613.064 302.757 613.414 302.608 613.683 302.299C613.955 301.989 614.165 301.606 614.305 301.148C614.454 300.698 614.554 300.198 614.603 299.658C614.653 299.126 614.685 298.635 614.685 298.186ZM618.097 298.186C618.097 299.176 617.995 300.117 617.805 301.016C617.606 301.919 617.285 302.708 616.855 303.379C616.414 304.06 615.853 304.609 615.164 305.009C614.475 305.41 613.625 305.608 612.643 305.608C611.662 305.608 610.803 305.41 610.102 305.009C609.401 304.609 608.831 304.069 608.393 303.379C607.952 302.699 607.63 301.907 607.432 301.016C607.23 300.117 607.131 299.176 607.131 298.186C607.131 297.195 607.23 296.255 607.432 295.364C607.63 294.473 607.952 293.693 608.393 293.024C608.831 292.364 609.401 291.823 610.102 291.432C610.803 291.043 611.653 290.842 612.643 290.842C613.633 290.842 614.475 291.043 615.164 291.432C615.853 291.832 616.414 292.364 616.855 293.024C617.285 293.693 617.606 294.473 617.805 295.364C618.006 296.255 618.097 297.195 618.097 298.186Z" fill="white"/>
<path d="M611.08 321.73V311.436L608.469 313.457L606.736 311.094L611.349 307.714H614.381V321.739H611.068" fill="white"/>
<path d="M601.95 314.692C601.95 314.26 601.921 313.769 601.871 313.241C601.821 312.721 601.722 312.221 601.57 311.76C601.43 311.298 601.219 310.918 600.951 310.609C600.679 310.299 600.331 310.15 599.89 310.15C599.449 310.15 599.09 310.308 598.818 310.609C598.541 310.918 598.33 311.298 598.178 311.76C598.029 312.221 597.93 312.709 597.869 313.241C597.819 313.769 597.79 314.251 597.79 314.692C597.79 315.131 597.819 315.63 597.869 316.162C597.919 316.691 598.029 317.193 598.178 317.652C598.33 318.113 598.549 318.493 598.818 318.803C599.09 319.112 599.449 319.264 599.89 319.264C600.331 319.264 600.679 319.112 600.951 318.803C601.219 318.493 601.43 318.113 601.57 317.652C601.722 317.202 601.821 316.702 601.871 316.162C601.921 315.63 601.95 315.142 601.95 314.692ZM605.362 314.692C605.362 315.683 605.262 316.623 605.072 317.523C604.871 318.423 604.552 319.214 604.123 319.892C603.691 320.573 603.121 321.113 602.432 321.513C601.739 321.914 600.889 322.115 599.911 322.115C598.929 322.115 598.07 321.914 597.369 321.513C596.668 321.113 596.099 320.573 595.657 319.892C595.216 319.214 594.898 318.423 594.696 317.523C594.498 316.623 594.398 315.683 594.398 314.692C594.398 313.699 594.498 312.762 594.696 311.871C594.898 310.98 595.216 310.2 595.657 309.528C596.099 308.868 596.668 308.327 597.369 307.939C598.07 307.547 598.92 307.349 599.911 307.349C600.901 307.349 601.739 307.547 602.432 307.939C603.121 308.339 603.691 308.868 604.123 309.528C604.561 310.2 604.871 310.98 605.072 311.871C605.271 312.762 605.362 313.699 605.362 314.692Z" fill="white"/>
<path d="M557.386 321.539V314.406L555.575 315.808L554.383 314.166L557.584 311.826H559.688V321.539H557.395" fill="white"/>
<path d="M551.066 316.665C551.066 316.364 551.045 316.034 551.016 315.663C550.978 315.292 550.908 314.953 550.806 314.643C550.706 314.334 550.566 314.062 550.376 313.852C550.186 313.633 549.947 313.533 549.646 313.533C549.345 313.533 549.097 313.641 548.907 313.852C548.714 314.062 548.565 314.334 548.454 314.643C548.346 314.962 548.276 315.304 548.247 315.663C548.206 316.034 548.194 316.364 548.194 316.665C548.194 316.963 548.215 317.313 548.247 317.684C548.285 318.055 548.355 318.394 548.454 318.716C548.565 319.034 548.705 319.294 548.907 319.516C549.097 319.735 549.345 319.834 549.646 319.834C549.947 319.834 550.195 319.726 550.376 319.516C550.566 319.306 550.706 319.034 550.806 318.716C550.908 318.406 550.978 318.055 551.016 317.684C551.045 317.313 551.066 316.975 551.066 316.665ZM553.429 316.665C553.429 317.346 553.359 318.006 553.219 318.625C553.078 319.244 552.856 319.796 552.558 320.267C552.258 320.737 551.866 321.105 551.375 321.386C550.896 321.666 550.315 321.806 549.626 321.806C548.936 321.806 548.355 321.666 547.864 321.386C547.385 321.105 546.985 320.737 546.675 320.267C546.365 319.796 546.144 319.244 546.015 318.625C545.875 318.006 545.805 317.346 545.805 316.665C545.805 315.984 545.875 315.324 546.015 314.714C546.155 314.094 546.374 313.554 546.675 313.092C546.985 312.631 547.376 312.263 547.864 311.991C548.346 311.722 548.936 311.582 549.626 311.582C550.315 311.582 550.896 311.722 551.375 311.991C551.857 312.263 552.246 312.631 552.558 313.092C552.856 313.554 553.078 314.094 553.219 314.714C553.359 315.324 553.429 315.984 553.429 316.665Z" fill="white"/>
<path d="M585.924 334.031V326.898L584.113 328.297L582.924 326.667L586.125 324.315H588.226V334.04H585.935" fill="white"/>
<path d="M579.606 329.142C579.606 328.842 579.585 328.503 579.547 328.143C579.507 327.772 579.448 327.442 579.346 327.121C579.247 326.803 579.098 326.543 578.916 326.332C578.727 326.11 578.487 326.011 578.177 326.011C577.865 326.011 577.625 326.122 577.435 326.332C577.246 326.543 577.097 326.811 576.985 327.121C576.874 327.442 576.804 327.781 576.775 328.143C576.734 328.511 576.717 328.842 576.717 329.142C576.717 329.443 576.734 329.794 576.775 330.165C576.816 330.533 576.886 330.875 576.985 331.193C577.085 331.514 577.237 331.774 577.435 331.985C577.625 332.195 577.877 332.303 578.177 332.303C578.475 332.303 578.727 332.195 578.916 331.985C579.098 331.766 579.247 331.503 579.346 331.193C579.448 330.875 579.518 330.533 579.547 330.165C579.585 329.794 579.606 329.452 579.606 329.142ZM581.969 329.142C581.969 329.823 581.899 330.483 581.759 331.102C581.618 331.725 581.397 332.274 581.099 332.744C580.798 333.215 580.406 333.594 579.918 333.875C579.436 334.155 578.855 334.287 578.166 334.287C577.476 334.287 576.895 334.146 576.416 333.875C575.925 333.594 575.534 333.215 575.224 332.744C574.914 332.274 574.695 331.725 574.564 331.102C574.424 330.483 574.354 329.823 574.354 329.142C574.354 328.462 574.424 327.802 574.564 327.182C574.704 326.563 574.923 326.023 575.224 325.561C575.534 325.102 575.925 324.731 576.416 324.451C576.895 324.179 577.485 324.039 578.166 324.039C578.846 324.039 579.436 324.179 579.918 324.451C580.397 324.72 580.786 325.091 581.099 325.561C581.397 326.023 581.618 326.563 581.759 327.182C581.899 327.793 581.969 328.453 581.969 329.142Z" fill="white"/>
<path d="M625.093 314.692C625.093 314.26 625.064 313.769 625.014 313.241C624.965 312.721 624.862 312.221 624.713 311.76C624.573 311.298 624.363 310.918 624.094 310.609C623.822 310.299 623.472 310.15 623.034 310.15C622.593 310.15 622.233 310.308 621.962 310.609C621.681 310.918 621.471 311.298 621.322 311.76C621.173 312.221 621.071 312.709 621.012 313.241C620.963 313.769 620.933 314.251 620.933 314.692C620.933 315.131 620.951 315.63 621.012 316.162C621.062 316.691 621.173 317.193 621.322 317.652C621.471 318.113 621.681 318.493 621.962 318.803C622.233 319.112 622.601 319.264 623.034 319.264C623.463 319.264 623.822 319.112 624.094 318.803C624.363 318.493 624.573 318.113 624.713 317.652C624.862 317.202 624.965 316.702 625.014 316.162C625.064 315.63 625.093 315.142 625.093 314.692ZM628.496 314.692C628.496 315.683 628.394 316.623 628.195 317.523C627.994 318.423 627.675 319.214 627.246 319.892C626.814 320.573 626.244 321.113 625.555 321.513C624.862 321.914 624.024 322.115 623.034 322.115C622.043 322.115 621.193 321.914 620.492 321.513C619.791 321.113 619.222 320.573 618.781 319.892C618.339 319.214 618.021 318.423 617.819 317.523C617.621 316.623 617.521 315.683 617.521 314.692C617.521 313.699 617.621 312.762 617.819 311.871C618.021 310.98 618.339 310.2 618.781 309.528C619.222 308.868 619.8 308.327 620.492 307.939C621.193 307.547 622.032 307.349 623.034 307.349C624.033 307.349 624.862 307.547 625.555 307.939C626.244 308.339 626.814 308.868 627.246 309.528C627.675 310.2 627.994 310.98 628.195 311.871C628.394 312.762 628.496 313.699 628.496 314.692Z" fill="white"/>
<path d="M618.708 220.02C615.477 204.211 601.4 192.745 585.243 192.745C582.783 192.745 580.362 193.026 578.01 193.537C574.078 170.506 553.989 152.906 529.857 152.906C505.726 152.906 486.008 170.176 481.816 192.897C464.438 194.477 450.781 209.124 450.781 226.903C450.781 245.732 466.106 261.06 484.936 261.06H536.039C538.65 261.06 540.762 258.948 540.762 256.336C540.762 253.725 538.65 251.616 536.039 251.616H484.936C471.308 251.616 460.225 240.53 460.225 226.903C460.225 213.275 471.308 202.192 484.936 202.192C489.887 202.192 494.66 203.641 498.741 206.402C500.903 207.862 503.844 207.293 505.305 205.131C506.766 202.972 506.196 200.031 504.034 198.57C500.173 195.959 495.873 194.218 491.348 193.356C495.209 175.639 510.998 162.333 529.857 162.333C549.946 162.333 566.553 177.438 568.966 196.879C567.695 197.568 566.466 198.319 565.274 199.181C563.162 200.711 562.683 203.662 564.205 205.774C565.735 207.883 568.686 208.365 570.798 206.834C575.019 203.781 580.02 202.172 585.243 202.172C596.939 202.172 607.114 210.465 609.454 221.901C609.915 224.13 611.887 225.673 614.078 225.673C614.387 225.673 614.706 225.641 615.027 225.573C617.577 225.051 619.228 222.55 618.708 220" fill="white"/>
<path d="M362.257 396.685H348.51V386.592H388.048V396.685H374.301V437.154H362.266V396.685H362.257Z" fill="white"/>
<path d="M391.695 398.56H401.481L402.331 405.243H402.641C405.431 400.041 409.704 397.631 413.595 397.631C415.848 397.631 417.168 397.862 418.258 398.411L416.005 408.585C414.606 408.276 413.756 408.115 412.044 408.115C409.173 408.115 405.673 409.976 403.66 415.108V437.169H391.695V398.56Z" fill="white"/>
<path d="M422.695 451.161L424.795 442.307C426.037 442.617 426.586 442.699 427.357 442.699C431.088 442.699 432.951 440.756 433.88 437.955L434.421 436.094L419.584 398.577H431.619L436.901 414.576C437.993 418.146 438.843 421.719 439.854 425.531H440.164C441.014 421.879 441.794 418.228 442.804 414.576L447.236 398.577H458.731L445.445 437.257C441.645 447.2 437.523 452.093 428.277 452.093C425.797 452.093 424.235 451.783 422.686 451.161H422.695Z" fill="white"/>
<path d="M465.496 386.592H477.61V405.851H494.308V386.592H506.343V437.154H494.308V416.335H477.61V437.154H465.496V386.592Z" fill="white"/>
<path d="M515.377 426.375C515.377 418.219 521.669 413.788 536.897 412.237C536.588 409.056 534.955 407.186 530.994 407.186C527.883 407.186 524.78 408.276 520.898 410.446L516.706 402.681C521.76 399.57 527.272 397.631 533.325 397.631C543.268 397.631 548.862 403.143 548.862 415.26V437.16H539.076L538.226 433.278H537.917C534.736 436.149 531.233 438.089 526.892 438.089C519.829 438.089 515.397 432.808 515.397 426.364L515.377 426.375ZM536.886 425.753V419.621C529.194 420.632 526.863 422.733 526.863 425.443C526.863 427.696 528.341 428.785 530.973 428.785C533.386 428.785 535.016 427.625 536.877 425.753H536.886Z" fill="white"/>
<path d="M556.062 417.831C556.062 405.013 565.615 397.631 576.33 397.631C581.074 397.631 584.713 399.261 587.597 401.744L582.003 409.126C580.212 407.805 578.743 407.265 577.031 407.265C571.667 407.265 568.326 411.457 568.326 417.831C568.326 424.202 571.898 428.394 576.642 428.394C579.201 428.394 581.383 427.465 583.323 425.984L587.985 433.517C584.255 436.938 579.362 438.101 575.249 438.101C564.376 438.101 556.062 430.646 556.062 417.831Z" fill="white"/>
<path d="M594.676 382.87H606.562V413.163H606.793L618.288 398.557H631.494L618.057 414.635L632.423 437.154H619.377L610.993 422.478L606.574 427.599V437.154H594.687V382.858L594.676 382.87Z" fill="white"/>
<path d="M638.648 386.592H651.855L659.859 408.571C660.788 411.521 661.65 414.553 662.579 417.734H662.891C663.82 414.553 664.6 411.521 665.611 408.571L673.305 386.592H686.512V437.154H675.555V419.595C675.555 414.623 676.565 406 677.187 401.028H676.878L672.686 414.235L665.85 432.872H659.018L652.264 414.235L648.224 401.028H647.911C648.534 406 649.544 414.623 649.544 419.595V437.154H638.669V386.592H638.648Z" fill="white"/>
<path d="M695.041 417.831C695.041 405.325 704.056 397.631 713.298 397.631C724.484 397.631 729.917 405.705 729.917 416.198C729.917 418.371 729.686 420.393 729.447 421.482H706.685C707.777 426.685 711.429 428.934 716.319 428.934C719.111 428.934 721.913 428.084 724.635 426.524L728.515 433.748C724.475 436.62 719.19 438.101 714.61 438.101C703.585 438.101 695.041 430.716 695.041 417.831ZM719.661 413.399C719.661 409.596 717.952 406.716 713.599 406.716C710.179 406.716 707.307 408.886 706.524 413.399H719.652H719.661Z" fill="white"/>
<path d="M312.434 520.338C312.434 503.95 322.068 493.928 335.035 493.928C341.248 493.928 346.059 496.878 349.091 500.22L345.519 504.263C342.799 501.47 339.457 499.68 335.114 499.68C325.561 499.68 319.187 507.523 319.187 520.189C319.187 532.855 325.249 541.008 334.874 541.008C339.767 541.008 343.418 539.069 346.681 535.496L350.251 539.378C346.141 544.119 341.166 546.763 334.643 546.763C321.91 546.763 312.434 536.977 312.434 520.35V520.338Z" fill="white"/>
<path d="M375.273 494.873H404.637V500.385H381.796V516.312H401.056V521.827H381.796V540.315H405.408V545.827H375.273V494.873Z" fill="white"/>
<path d="M431.746 494.87H447.672C458.078 494.87 465.541 498.603 465.541 509.239C465.541 517.162 461.04 521.824 454.125 523.606L467.101 545.815H459.719L447.444 524.295H438.278V545.815H431.755V494.861L431.746 494.87ZM446.732 519.022C454.657 519.022 459.009 515.762 459.009 509.239C459.009 502.716 454.657 500.155 446.732 500.155H438.269V519.034H446.732V519.022Z" fill="white"/>
<path d="M501.024 500.385H485.646V494.873H523.005V500.385H507.547V545.827H501.024V500.385Z" fill="white"/>
<path d="M547.641 494.873H554.164V545.827H547.641V494.873Z" fill="white"/>
<path d="M583.625 494.873H612.989V500.385H590.148V517.553H609.568V523.065H590.148V545.827H583.625V494.873Z" fill="white"/>
<path d="M637.605 494.873H644.128V545.827H637.605V494.873Z" fill="white"/>
<path d="M673.57 494.873H702.934V500.385H680.093V516.312H699.353V521.827H680.093V540.315H703.705V545.827H673.57V494.873Z" fill="white"/>
<path d="M730.037 494.873H742.773C758.46 494.873 766.856 503.958 766.856 520.115C766.856 536.272 758.472 545.827 743.083 545.827H730.037V494.873ZM742.315 540.464C754.198 540.464 760.102 533.012 760.102 520.115C760.102 507.218 754.198 500.225 742.315 500.225H736.56V540.464H742.315Z" fill="white"/>
<path d="M392.321 760.517C385.589 760.517 378.581 759.248 371.297 756.71C364.013 754.172 357.447 750.309 351.598 745.122L367.821 725.588C371.683 728.678 375.822 731.216 380.236 733.203C384.761 735.079 389.01 736.017 392.983 736.017C397.287 736.017 400.377 735.355 402.253 734.031C404.24 732.706 405.233 730.83 405.233 728.402C405.233 725.864 403.909 723.933 401.26 722.608C398.722 721.284 395.19 719.739 390.665 717.973L377.257 712.345C371.518 710.027 366.441 706.385 362.027 701.419C357.723 696.453 355.571 690.107 355.571 682.382C355.571 676.202 357.281 670.628 360.702 665.662C364.124 660.585 368.814 656.557 374.773 653.578C380.843 650.487 387.796 648.942 395.632 648.942C401.812 648.942 408.047 650.156 414.338 652.584C420.739 654.902 426.422 658.489 431.389 663.344L417.152 681.223C413.51 678.685 409.979 676.753 406.557 675.429C403.247 674.105 399.605 673.443 395.632 673.443C392.21 673.443 389.451 674.05 387.355 675.263C385.368 676.477 384.375 678.298 384.375 680.726C384.375 683.265 385.81 685.251 388.679 686.686C391.548 688.01 395.411 689.61 400.267 691.487L413.345 696.618C420.077 699.267 425.264 702.964 428.906 707.71C432.547 712.455 434.368 718.58 434.368 726.085C434.368 732.155 432.713 737.838 429.402 743.135C426.202 748.322 421.456 752.516 415.166 755.717C408.875 758.917 401.26 760.517 392.321 760.517Z" fill="#223031"/>
<path d="M456.626 758.531V650.929H526.153V674.767H485.099V691.652H520.194V715.49H485.099V734.693H527.809V758.531H456.626Z" fill="#223031"/>
<path d="M600.26 760.517C591.1 760.517 582.603 758.531 574.767 754.558C567.042 750.474 560.806 744.349 556.061 736.183C551.315 728.016 548.942 717.808 548.942 705.558C548.942 696.508 550.322 688.507 553.081 681.554C555.95 674.491 559.813 668.531 564.669 663.676C569.635 658.82 575.208 655.178 581.389 652.75C587.679 650.212 594.19 648.942 600.922 648.942C608.096 648.942 614.497 650.377 620.125 653.246C625.864 656.005 630.61 659.316 634.362 663.179L619.463 681.389C616.814 679.071 614.055 677.195 611.186 675.76C608.427 674.215 605.227 673.443 601.585 673.443C597.391 673.443 593.473 674.712 589.831 677.25C586.3 679.678 583.43 683.209 581.223 687.845C579.126 692.48 578.078 698.053 578.078 704.564C578.078 714.607 580.175 722.388 584.368 727.906C588.672 733.313 594.301 736.017 601.254 736.017C605.447 736.017 609.144 735.079 612.345 733.203C615.656 731.327 618.47 729.175 620.787 726.747L635.686 744.625C631.161 749.923 625.864 753.896 619.794 756.544C613.724 759.193 607.213 760.517 600.26 760.517Z" fill="#223031"/>
<path d="M654.548 758.531V735.686H677.061V681.389H657.196V663.841C663.156 662.627 668.232 661.248 672.426 659.703C676.62 658.047 680.703 656.005 684.676 653.578H705.534V735.686H724.406V758.531H654.548Z" fill="#223031"/>
<defs>
<linearGradient id="paint0_linear_183_1011" x1="539.999" y1="-112.453" x2="539.824" y2="1028" gradientUnits="userSpaceOnUse">
<stop stop-color="#8BC34A"/>
<stop offset="0.344759" stop-color="#385C0E"/>
<stop offset="1" stop-color="#1C2538"/>
</linearGradient>
</defs>
</svg>
